# xmcd
#
# Track frame offsets: 
#        150
#        12545
#        26020
#        36385
#        49422
#        61385
#        71532
#        84395
#        94927
#        107712
#        119960
#        132295
#        146230
#        157835
#        167925
#        179362
#        190725
#        204942
#        219462
#        231332
#
# Disc length: 3290 seconds
#
# Revision: 4
# Processed by: cddbd v1.5.2PL0 Copyright (c) Steve Scherf et al.
# Submitted via: ExactAudioCopy v0.99pb4
#
DISCID=2d0cd814
DTITLE=Jim Ed Brown - The Essential Jim Ed Brown And The Browns
DYEAR=1996
DGENRE=Country
TTITLE0=I Take The Chance
TTITLE1=Here Today And Gone Tomorrow
TTITLE2=Looking Back To See
TTITLE3=The Three Bells (Les Trois Cloches)
TTITLE4=Scarlet Ribbons (For Her Hair)
TTITLE5=Send Me The Pillow You Dream On
TTITLE6=They Call The Wind Maria
TTITLE7=Pop A Top
TTITLE8=You Can Have Her
TTITLE9=Bottle, Bottle
TTITLE10=Man And Wife Times
TTITLE11=Morning
TTITLE12=Angel's Sunday
TTITLE13=Southern Loving
TTITLE14=Broad-Minded Man
TTITLE15=Sometime Sunshine
TTITLE16=It's That Time Of Night
TTITLE17=Gently Comes Love
TTITLE18=Barroom Pals And Goodtime Gals
TTITLE19=You're The Part Of Me
EXTD=
EXTT0=
EXTT1=
EXTT2=
EXTT3=
EXTT4=
EXTT5=
EXTT6=
EXTT7=
EXTT8=
EXTT9=
EXTT10=
EXTT11=
EXTT12=
EXTT13=
EXTT14=
EXTT15=
EXTT16=
EXTT17=
EXTT18=
EXTT19=
PLAYORDER=
